
<svg xmlns="http://www.w3.org/2000/svg" version="1.1" xmlns:xlink="http://www.w3.org/1999/xlink" preserveAspectRatio="none" x="0px" y="0px" width="1178px" height="381px" viewBox="0 0 1178 381">
<defs>
<g id="drop_shadow_0_Layer0_0_FILL">
<path fill="#006699" stroke="none" d="
M 364 76.7
Q 357 67.05 348.4 58.85 337 47.95 325.8 36.75 314.6 25.6 303.45 14.35 297.9 8.65 291.85 3.45 287.35 -0.45 278.6 0.25 273.65 0.65 270.65 3.3 258.8 13.75 247.8 25.15 236.8 36.5 225.1 47.2 211.45 43.85 196.3 42.35 176.9 40.4 159.6 43.15 149.85 44.7 140.6 46.7 137.95 44.6 135.6 42.2 124.5 30.95 113.25 19.85 107.55 14.25 102.3 8.25 98.35 3.8 92.55 1.35 87.15 -0.95 80.4 0.65 78.2 1.15 76.55 2.45 67.25 9.85 59 18.35 48 29.7 36.8 40.9 25.6 52.05 14.4 63.25 13 64.7 11.35 65.9 3.3 71.9 0.1 82.7 -0.3 88.45 0.7 92.75 1.35 95.35 2.8 97.05 12.25 108.45 22.85 118.7 34.2 129.7 45.35 140.95 45.35 141.35 45.25 141.7 41.55 156 40.25 172.7 38.6 194.25 42.8 213.6 44.2 220.2 45.35 227.45 37.95 234.95 30.55 242.4 19.35 253.55 7.85 264.4 3.5 268.5 1.45 274.55 -1 281.85 1.15 289.2 1.7 291.1 2.9 292.45 5.15 295.05 7.5 297.65 10.85 301.95 14.85 305.7 15.3 306.1 15.75 306.55 20.1 311.1 24.55 315.5 35.85 326.55 47.05 337.75 58.2 348.95 69.15 360.4 72.85 364.3 77.95 366.7 84.6 369.75 92.1 367.45 94 366.85 95.35 365.65 107.15 355.15 118.15 343.75 129.15 332.4 140.85 321.7 152.6 324.35 165.15 325.85 186.75 328.45 206.6 324.95 216.15 323.25 225.35 321.2 231.55 326.65 237.3 332.5 248.35 343.8 259.45 355.05 265.05 360.75 271.1 365.9 274.15 368.55 278.65 369.35 288.4 371.15 300.1 371.1 322.25 370.95 344.6 371.1 366.7 371.2 389.1 371.25 411.3 371.25 432.6 371.2 455.1 371.1 472.6 366.3 490.2 361.45 499.5 348.45 508.9 335.35 509.85 313.7 510.35 303.25 510.25 291.95 510.1 269.8 510.75 247.7 511.2 230.7 508 217.15 503.65 199 489.1 191.25 474.5 183.45 452.6 183.1 441.35 182.95 430.1 182.55 412.3 181.9 399.15 185.65 390.5 188.1 383.85 192.6 370.4 201.65 364.9 218.45 364 221.1 363.75 224 361.65 244.65 361.85 267.2 361.35 267.35 361.15 267.2 351 258.05 341.5 248.3 330.5 236.95 319.35 225.7 319.35 225.35 319.45 224.95 323.1 210.1 324.15 192.7 325.5 170.8 321 152.2 319.95 147.75 319.35 142.7 323 138.95 326.65 135.25 337.85 124.1 348.95 112.85 354.55 107.15 360.55 101.9 366.75 96.45 366.55 85.7 366.4 80 364 76.7
M 497.3 120.8
Q 502.15 111.75 503.4 99.2 504.95 82.75 500.45 69.75 494.7 53.25 483.6 41.95 472.55 30.65 458.45 22.25 444.5 13.9 427.15 8.85 409.9 3.8 388.65 2.3 381.5 1.75 375.85 3.4 371.45 4.7 371 9.5 369.15 28.85 369.4 50.2 369.65 72.65 369.6 94.7 369.55 117.25 369.1 139.2 368.9 151.4 368.95 162.95 368.95 170.6 372.35 174.5 373.95 176.35 376.85 176.5 378.6 176.6 380.3 176.65 385.15 177.3 390.65 176.85 392.55 176.7 394.45 176.55 405.7 175.95 415.85 173.75 434.35 169.8 449.55 162.55 464.65 155.4 477.05 145.4 489.5 135.45 497.3 120.8
M 666.5 185.3
Q 665.6 184.7 664.55 184.6 647.3 183.35 628.85 183.5 606.5 183.7 584.1 183.7 561.75 183.7 539.35 183.5 533.45 183.45 528.65 184.5 519.65 186.5 520.6 198.7 520.6 220.95 520.25 243.2 520.1 252.7 525.3 256.45 527 257.7 529.35 257.8 543.1 258.45 556.85 258.7 557.3 266.75 557.25 275.45 557.1 297.8 557.1 320.2 557.1 331.45 556.75 342.7 556.55 348.7 557.25 353.7 557.55 355.95 558.1 358 558.7 360.5 559.6 362.7 560.8 363.6 562.1 364.45 563.4 365.25 565.1 365.35 584.15 366.15 603.85 366 609.5 365.95 615.05 366.35 626 367.1 631.35 362.7 634.1 356.85 634.05 347.95 633.85 325.6 633.75 303.2 633.65 280.65 634.1 258.7 644.15 258.25 654.85 258.6 661.45 258.8 666.05 257 669.7 255.6 670.45 251.35 671.15 249.25 671.2 246.45 671.2 244.8 671.25 243.15 672 233.1 671.8 222.2 671.6 210.95 672 199.7 672.35 189.2 666.5 185.3
M 682.75 92.45
Q 683.15 70.05 676.5 54.25 669.9 38.55 659.15 26.9 648.4 15.3 633.35 7.95 622.1 2.45 606.6 1.4 583.75 -0.15 568.1 6.95 552.7 13.9 541.6 25.2 530.55 36.5 523.65 52.1 516.8 67.55 516.1 89.2 516.5 94.65 517.15 100.15 519.3 120.1 527.45 134.4 535.55 148.65 547.45 159.1 559.35 169.55 576.35 174.9 587.05 178.25 601.1 177.9 622.65 177.35 636.95 169.4 651.4 161.35 661.8 149.35 672.15 137.4 678.1 120.8 682.5 108.6 682.75 92.45
M 834.5 185.2
Q 833.85 184.95 833.6 184.9 818.1 184.2 802.6 184.1 780.2 184 758.1 183.75 735.9 183.5 713.6 183.5 707.95 183.5 702.65 182.85 686.25 180.85 685.6 194.2 686.35 211.1 687.25 227.7 688.35 249.05 690.05 269.45 691.8 290.4 695.25 309.2 698.7 328.2 708.8 340.55 718.85 352.85 733.75 360.35 744.85 365.95 761.1 366.35 765.35 366.45 769.55 366 772.9 365.6 776.1 365 777.15 364.8 778.2 364.6 780.55 364.1 782.85 363.45 783.55 363.25 784.25 363.05 792.25 360.65 798.75 356.65 812.65 348.1 821.05 334.25 829.55 320.25 832.15 300.25 834.7 280.7 836.25 259.7 837.75 239 838.85 217.7 839.3 208.4 840.05 199.2 841 188.3 834.5 185.2
M 838.4 19.2
Q 838.3 12.25 836.35 7.05 834.85 3.05 829.85 2.75 811.2 1.6 791.35 1.75 769 1.95 746.6 1.95 724.75 1.95 702.85 1.85 702.35 1.85 701.85 1.85 698.85 1.8 696.35 2.35 694.1 2.8 692.25 3.7 691.8 3.95 691.45 4.3 687.2 8.4 687.35 16.95 687.35 37.45 687.3 57.95 687.25 65 689.35 70.1 690.95 73.95 696.1 74.15 709.85 74.7 723.6 74.95 724.05 95.25 723.95 116.2 723.85 138.55 723.65 160.95 723.6 164.45 724.05 167.5 724.3 169.1 724.7 170.6 725.35 173.1 726.45 175.15 727.4 177.05 729.45 177.6 736.2 179.5 745.1 179.35 763.45 179 781.9 178.8 782.85 178.85 783.8 178.95 787.95 179.3 791.05 178.65 795.45 178.3 797.5 175.45 800.5 171.35 800.5 163.95 800.55 142 800.35 119.45 800.15 96.9 800.6 74.95 810.05 74.5 820.1 74.8 826.3 75 831.25 73.8 838 72.2 838.2 63.45 838.7 41.95 838.4 19.2
M 922.9 77.4
Q 917.8 74.1 911.05 72.85 897.45 70.4 887.65 75.55 873.05 83.3 870.35 102.95 870.25 111.2 872.4 117.15 878.4 133.5 896.15 137.95 903.75 139.8 911.3 137.9 928.95 133.45 935.05 117.2 936.6 113.05 936.6 107.7 936.7 86.35 922.9 77.4
M 1004.6 197.95
Q 1004.75 188.95 1000.25 185.1 998.65 183.75 996.35 183.65 981.05 182.75 965.1 182.85 942.75 182.95 920.35 182.95 898 182.95 875.6 182.7 866.9 182.6 859.4 183.7 857.05 184 855.7 185.55 851.8 190 851.85 198.45 851.85 200.7 851.85 202.95 851.85 225.3 851.85 247.7 851.85 270.05 851.85 292.45 851.85 314.8 851.65 337.2 851.6 344.25 852.1 350.75 852.05 351.2 852.05 351.7 852 355.5 852.85 358.4 852.85 358.65 852.9 358.9 853.8 366.1 861.6 366.4 882.05 367.15 903.1 367.3 910.5 367.35 916.05 365.8 920.35 364.6 921 359.9 922.95 346.15 922.6 330.2 922.15 307.65 922.6 285.7 933.55 285.25 945.1 285.35 967.45 285.45 989.85 285.9 998.8 286.05 1002.1 281.05 1002.75 280.1 1002.85 279.15 1003.05 277.85 1003.2 276.6 1004.4 272 1004.3 265.95 1004.3 265.45 1004.3 264.95 1004.8 256.85 1004.65 248.2 1004.35 225.85 1004.5 203.45 1004.55 200.4 1004.6 197.95
M 1005.1 65.15
Q 1003.9 65.3 1003.1 66 991.65 75.5 981.1 85.95 978.3 88.75 975.1 91.1 969.4 95.25 968.35 103.95 968.5 104.1 968.45 104.2 968.4 108.65 970.45 110.85 981.3 122.35 992.9 133.15 995.8 135.9 998.35 138.9 1001.6 142.7 1008.1 142.95 1010.8 143 1012.4 141.7 1013.25 141.05 1014.05 140.4 1016.25 139.15 1018 137.35 1018.9 136.45 1019.8 135.55 1025.85 130.25 1031.55 124.65 1037.2 119.05 1043.15 113.8 1047.8 109.75 1046.7 101.2 1046.4 98.75 1045.05 97.25 1044.4 96.5 1043.75 95.8 1042.15 93.3 1039.95 91.35 1038.55 90.1 1037.15 88.85 1030.15 81.6 1022.75 74.75 1019.85 72.1 1017.3 69 1013.35 64.25 1005.1 65.15
M 1167.45 192
Q 1167.4 191.6 1167.35 191.25 1166.75 186.45 1163.15 184.55 1162.05 183.95 1161.05 183.85 1145.95 182.6 1129.6 182.75 1107.25 182.95 1084.85 182.95 1062.5 182.95 1040.1 182.7 1035.3 182.65 1030.9 182.9 1027.65 183.05 1024.65 183.4 1024.25 183.4 1023.85 183.45 1021.3 183.75 1019.85 185.2 1015.65 189.4 1015.85 197.95 1015.85 207.8 1015.85 217.7 1015.85 240.05 1015.85 262.45 1015.85 284.8 1015.85 307.2 1015.85 329.55 1016 351.95 1016.05 357.4 1017.5 361.65 1018.95 365.75 1023.85 366.2 1024.1 366.25 1024.4 366.25 1026.95 366.95 1030.35 366.85 1031.3 366.85 1032.2 366.8 1040.15 367.25 1048.6 367.1 1059.85 366.95 1071.1 367.35 1080.25 367.7 1083.9 363 1084.85 361.8 1085 360.15 1086.5 346 1086.25 330.2 1085.9 307.65 1086.35 285.7 1095.3 285.25 1104.85 285.3 1127.2 285.45 1149.6 285.8 1157.1 285.95 1162.35 284.2 1166.6 282.8 1167.1 277.9 1168.55 263.15 1168.35 246.7 1168.25 235.9 1168.1 225.05 1168.05 215.85 1168.1 206.65 1168.05 205.45 1168.1 204.3 1168.1 201.5 1168.15 198.7 1168.2 194.95 1167.45 192
M 1142.85 93.3
Q 1139.9 85.15 1134.1 79.65 1125.35 71.35 1108.85 72.05 1100.95 72.4 1095.65 75.3 1080.95 83.2 1078.35 102.95 1078.25 106.3 1078.7 109.2 1081.7 128.45 1096.75 135.9 1102.7 138.85 1111.6 138.55 1111.85 138.55 1112.1 138.55 1116.7 138.35 1120.65 137.5 1131.15 135.15 1137 128.05 1142.1 121.95 1143.95 112.85 1146.1 102.25 1142.85 93.3 Z"/>
</g>

<g id="logo_0_Layer0_0_FILL">
<path fill="#000000" stroke="none" d="
M 364 76.7
Q 357 67.05 348.4 58.85 337 47.95 325.8 36.75 314.6 25.6 303.45 14.35 297.9 8.65 291.85 3.45 287.35 -0.45 278.6 0.25 273.65 0.65 270.65 3.3 258.8 13.75 247.8 25.15 236.8 36.5 225.1 47.2 211.45 43.85 196.3 42.35 176.9 40.4 159.6 43.15 149.85 44.7 140.6 46.7 137.95 44.6 135.6 42.2 124.5 30.95 113.25 19.85 107.55 14.25 102.3 8.25 98.35 3.8 92.55 1.35 87.15 -0.95 80.4 0.65 78.2 1.15 76.55 2.45 67.25 9.85 59 18.35 48 29.7 36.8 40.9 25.6 52.05 14.4 63.25 13 64.7 11.35 65.9 3.3 71.9 0.1 82.7 -0.3 88.45 0.7 92.75 1.35 95.35 2.8 97.05 12.25 108.45 22.85 118.7 34.2 129.7 45.35 140.95 45.35 141.35 45.25 141.7 41.55 156 40.25 172.7 38.6 194.25 42.8 213.6 44.2 220.2 45.35 227.45 37.95 234.95 30.55 242.4 19.35 253.55 7.85 264.4 3.5 268.5 1.45 274.55 -1 281.85 1.15 289.2 1.7 291.1 2.9 292.45 5.15 295.05 7.5 297.65 10.85 301.95 14.85 305.7 15.3 306.1 15.75 306.55 20.1 311.1 24.55 315.5 35.85 326.55 47.05 337.75 58.2 348.95 69.15 360.4 72.85 364.3 77.95 366.7 84.6 369.75 92.1 367.45 94 366.85 95.35 365.65 107.15 355.15 118.15 343.75 129.15 332.4 140.85 321.7 152.6 324.35 165.15 325.85 186.75 328.45 206.6 324.95 216.15 323.25 225.35 321.2 231.55 326.65 237.3 332.5 248.35 343.8 259.45 355.05 265.05 360.75 271.1 365.9 274.15 368.55 278.65 369.35 288.4 371.15 300.1 371.1 322.25 370.95 344.6 371.1 366.7 371.2 389.1 371.25 411.3 371.25 432.6 371.2 455.1 371.1 472.6 366.3 490.2 361.45 499.5 348.45 508.9 335.35 509.85 313.7 510.35 303.25 510.25 291.95 510.1 269.8 510.75 247.7 511.2 230.7 508 217.15 503.65 199 489.1 191.25 474.5 183.45 452.6 183.1 441.35 182.95 430.1 182.55 412.3 181.9 399.15 185.65 390.5 188.1 383.85 192.6 370.4 201.65 364.9 218.45 364 221.1 363.75 224 361.65 244.65 361.85 267.2 361.35 267.35 361.15 267.2 351 258.05 341.5 248.3 330.5 236.95 319.35 225.7 319.35 225.35 319.45 224.95 323.1 210.1 324.15 192.7 325.5 170.8 321 152.2 319.95 147.75 319.35 142.7 323 138.95 326.65 135.25 337.85 124.1 348.95 112.85 354.55 107.15 360.55 101.9 366.75 96.45 366.55 85.7 366.4 80 364 76.7
M 348.25 79.3
Q 351.75 82.8 355.1 86.45 343.95 97.7 332.8 108.9 321.6 120.1 310.4 131.25 299.2 142.45 287.95 153.55 284.45 157.05 281.1 160.7 269.85 149.55 258.65 138.4 247.45 127.2 236.3 116 225.1 104.8 213.85 93.7 210.2 90.1 206.85 86.2 218.1 75.05 229.3 63.9 240.5 52.7 251.65 41.5 262.85 30.3 273.95 19.05 277.3 15.65 280.85 12.45 292.4 23.25 303.5 34.55 314.6 45.85 325.8 57 337 68.2 348.25 79.3
M 434.6 232.2
L 434.5 232.2
Q 434.35 214.7 434.35 197.2 450.9 196.55 466.1 198.35 486.2 200.75 492.95 216.4 496 223.45 496.1 232.2 487.75 232.2 479.35 232.2 457 232.2 434.6 232.2
M 435.35 267.2
Q 435.35 260.2 435.35 253.2 457.6 252.45 474 258.95 489.95 265.25 494 283.5 497.1 297.55 496.05 314.7 495.1 330.7 487.9 340.3 480.7 349.8 467.15 353.15 453.05 356.65 435.35 356.7 435.35 334.3 435.35 311.95 435.35 289.55 435.35 267.2
M 413.35 241.95
Q 413.35 251.6 413.35 261.2 391.55 260.6 381.85 247.9 379.25 244.45 377.75 239.9 376.2 235.2 376.6 228.7 380.5 210.2 395 202.3 402.55 198.15 413.35 197.2 413.35 219.6 413.35 241.95
M 348.05 274.75
Q 351.6 278.3 355.1 281.95 377.5 281.95 399.85 281.95 407.25 281.95 414.6 281.95 414.6 304.35 414.6 326.7 414.6 341.8 414.6 356.95 408 356.95 401.35 356.95 401.25 356.95 401.1 356.95 401.1 356.85 401.1 356.8 397.35 356.7 393.6 356.7 393.5 356.7 393.35 356.7 374.85 356.7 356.35 356.7
L 356.35 356.6
Q 349.75 356.45 343.1 356.45 343 356.45 342.85 356.45 328.1 356.45 313.35 356.45
L 313.35 356.35
Q 305.35 356.2 297.35 356.2 297.25 356.2 297.1 356.2 289 356.2 280.85 356.2 277.35 352.55 273.8 349 262.6 337.85 251.4 326.65 240.25 315.45 228.95 304.35 217.65 293.25 206.85 281.7 218.1 270.55 229.3 259.4 240.5 248.2 251.65 237 262.85 225.8 274.05 214.65 277.5 211.2 280.85 207.7 292.1 218.85 303.3 230 314.5 241.2 325.65 252.4 336.85 263.6 348.05 274.75
M 172.85 150.15
Q 181.45 148.2 190.5 150.3 199.4 152.4 205.4 157.6 214.45 165.35 216.35 180 217.5 188.35 215.2 194.9 209.45 211.4 193.1 217.45 185.45 220.25 175.85 218.6 166.35 216.95 160 212.1 149.45 203.95 147.05 187.9 146.65 185.4 146.6 182.7 148.85 162.6 162.85 154.05 167.1 151.45 172.85 150.15
M 85.6 12.45
Q 97.15 23.25 108.25 34.55 119.35 45.85 130.55 57 141.75 68.2 153 79.3 156.5 82.8 159.85 86.45 148.7 97.7 137.55 108.9 126.35 120.1 115.15 131.25 103.95 142.45 92.8 153.65 89.2 157.2 85.6 160.7 74.35 149.55 63.15 138.4 51.95 127.2 40.8 116 29.6 104.8 18.4 93.65 14.85 90.05 11.35 86.45 22.6 75.3 33.8 64.15 45 52.95 56.15 41.75 67.35 30.55 78.45 19.3 81.95 15.8 85.6 12.45
M 85.6 207.7
Q 96.85 218.85 108.05 230 119.25 241.2 130.4 252.4 141.6 263.6 152.8 274.75 156.35 278.3 159.85 281.95 148.7 293.2 137.55 304.4 126.35 315.6 115.15 326.75 103.95 337.95 92.7 349.05 89.2 352.55 85.85 356.2 74.6 345.05 63.4 333.9 52.2 322.7 41.05 311.5 29.85 300.3 18.65 289.15 15 285.45 11.35 281.7 22.6 270.55 33.8 259.4 45 248.2 56.15 237 67.35 225.8 78.45 214.55 81.95 211.05 85.6 207.7
M 497.3 120.8
Q 502.15 111.75 503.4 99.2 504.95 82.75 500.45 69.75 494.7 53.25 483.6 41.95 472.55 30.65 458.45 22.25 444.5 13.9 427.15 8.85 409.9 3.8 388.65 2.3 381.5 1.75 375.85 3.4 371.45 4.7 371 9.5 369.15 28.85 369.4 50.2 369.65 72.65 369.6 94.7 369.55 117.25 369.1 139.2 368.9 151.4 368.95 162.95 368.95 170.6 372.35 174.5 373.95 176.35 376.85 176.5 378.6 176.6 380.3 176.65 385.15 177.3 390.65 176.85 392.55 176.7 394.45 176.55 405.7 175.95 415.85 173.75 434.35 169.8 449.55 162.55 464.65 155.4 477.05 145.4 489.5 135.45 497.3 120.8
M 490.65 86.75
Q 491.65 95 489.85 102.15 485.4 119.9 473.85 130.7 462.25 141.5 447.4 149.05 432.6 156.55 414.1 160.5 399.5 163.6 382.35 164.2 382.35 148.6 382.35 132.95 382.35 132.85 382.35 132.7 395.6 123.6 408.75 114.4 421.9 105.15 435.1 96.05 438.45 93.8 441.1 90.95 441.6 89.3 441.15 87.7 441.1 87.6 441.1 87.45 428.1 78.1 414.4 69.4 400.7 60.75 387.15 51.9 385.05 50.5 382.85 49.2 382.85 32.6 382.85 15.95 382.85 15.85 382.85 15.7 404.8 16.15 422.1 21.2 439.4 26.3 453.3 34.75 467.2 43.2 477.7 55.1 488.2 66.95 490.65 86.75
M 666.5 185.3
Q 665.6 184.7 664.55 184.6 647.3 183.35 628.85 183.5 606.5 183.7 584.1 183.7 561.75 183.7 539.35 183.5 533.45 183.45 528.65 184.5 519.65 186.5 520.6 198.7 520.6 220.95 520.25 243.2 520.1 252.7 525.3 256.45 527 257.7 529.35 257.8 543.1 258.45 556.85 258.7 557.3 266.75 557.25 275.45 557.1 297.8 557.1 320.2 557.1 331.45 556.75 342.7 556.55 348.7 557.25 353.7 557.55 355.95 558.1 358 558.7 360.5 559.6 362.7 560.8 363.6 562.1 364.45 563.4 365.25 565.1 365.35 584.15 366.15 603.85 366 609.5 365.95 615.05 366.35 626 367.1 631.35 362.7 634.1 356.85 634.05 347.95 633.85 325.6 633.75 303.2 633.65 280.65 634.1 258.7 644.15 258.25 654.85 258.6 661.45 258.8 666.05 257 669.7 255.6 670.45 251.35 671.15 249.25 671.2 246.45 671.2 244.8 671.25 243.15 672 233.1 671.8 222.2 671.6 210.95 672 199.7 672.35 189.2 666.5 185.3
M 657.6 242.45
Q 657.6 243.3 657.6 244.2 635.2 244.2 612.85 244.2 590.45 244.2 568.1 244.2 551.35 244.2 534.6 244.2 534.6 221.8 534.6 199.45 534.6 198.55 534.6 197.7 557 197.7 579.35 197.7 601.75 197.7 624.1 197.7 640.85 197.7 657.6 197.7 657.6 220.1 657.6 242.45
M 615.6 292.5
Q 617.9 292.5 619.6 292.95 620.05 314.9 619.9 337.45 619.85 344.7 619.85 351.95 597.45 351.95 575.1 351.95 573.1 351.95 571.1 351.95 571.1 329.55 571.1 307.2 571.1 300.05 571.1 292.95 593.05 292.5 615.6 292.5
M 682.75 92.45
Q 683.15 70.05 676.5 54.25 669.9 38.55 659.15 26.9 648.4 15.3 633.35 7.95 622.1 2.45 606.6 1.4 583.75 -0.15 568.1 6.95 552.7 13.9 541.6 25.2 530.55 36.5 523.65 52.1 516.8 67.55 516.1 89.2 516.5 94.65 517.15 100.15 519.3 120.1 527.45 134.4 535.55 148.65 547.45 159.1 559.35 169.55 576.35 174.9 587.05 178.25 601.1 177.9 622.65 177.35 636.95 169.4 651.4 161.35 661.8 149.35 672.15 137.4 678.1 120.8 682.5 108.6 682.75 92.45
M 666 70
Q 669.35 82.8 667.75 97.95 665.65 118.1 656.65 131.4 647.6 144.85 634.05 153.7 623.95 160.3 609.35 162.55 598.75 164.15 588.6 162.3 569.6 158.8 557.8 148.3 551.85 142.95 546.85 136.7 536.95 124.25 532.9 106.15 530.75 96.3 531.1 84.2 532.95 63.7 541.55 49.9 550.15 36.1 563.1 26.6 575.95 17.15 597.1 16.35 614.1 15.7 625.55 21 640.8 28.1 651.1 40.25 661.4 52.3 666 70
M 605.55 55.45
Q 592.9 53.45 584.35 58.25 570.05 66.3 566.6 85.2 566.6 89.35 567.05 93.4 568.2 104.25 573.45 111.3 580.65 120.95 594.65 123.45 602.5 124.9 609.25 122.5 625.65 116.6 630.9 99.45 633.05 92.65 631.8 84.7 629.15 67.9 617.55 59.9 612.65 56.55 605.55 55.45
M 834.5 185.2
Q 833.85 184.95 833.6 184.9 818.1 184.2 802.6 184.1 780.2 184 758.1 183.75 735.9 183.5 713.6 183.5 707.95 183.5 702.65 182.85 686.25 180.85 685.6 194.2 686.35 211.1 687.25 227.7 688.35 249.05 690.05 269.45 691.8 290.4 695.25 309.2 698.7 328.2 708.8 340.55 718.85 352.85 733.75 360.35 744.85 365.95 761.1 366.35 765.35 366.45 769.55 366 772.9 365.6 776.1 365 777.15 364.8 778.2 364.6 780.55 364.1 782.85 363.45 783.55 363.25 784.25 363.05 792.25 360.65 798.75 356.65 812.65 348.1 821.05 334.25 829.55 320.25 832.15 300.25 834.7 280.7 836.25 259.7 837.75 239 838.85 217.7 839.3 208.4 840.05 199.2 841 188.3 834.5 185.2
M 706.85 197.55
Q 716 197.95 725.1 197.95 733.2 212.2 741.3 226.6 749.35 240.85 757.45 255.25 758.6 257.35 759.9 259.5 761.05 261.45 764.35 261.45 769.1 257.8 771.65 251.85 774.15 246.1 777.05 240.55 784.7 225.95 792.25 211 795.3 204.9 798.6 198.95 811.65 198.5 825.35 198.85
L 825.35 198.95
Q 824.75 219.85 823.3 240.95 821.9 262.15 820 282.45 818.1 303.05 812.25 319.85 810.85 323.85 808.65 327.25 799.75 340.7 784.35 347.75 772.25 353.3 756.35 351.55 746.35 350.45 738.95 346.7 724.05 339.15 715.95 325 709.8 314.3 707.75 299.25 705.1 279.8 703.6 258.95 702.05 238.15 701.05 216.95 700.6 207.95 700.1 199.2 702.2 197.3 706.85 197.55
M 838.4 19.2
Q 838.3 12.25 836.35 7.05 834.85 3.05 829.85 2.75 811.2 1.6 791.35 1.75 769 1.95 746.6 1.95 724.75 1.95 702.85 1.85 702.35 1.85 701.85 1.85 698.85 1.8 696.35 2.35 694.1 2.8 692.25 3.7 691.8 3.95 691.45 4.3 687.2 8.4 687.35 16.95 687.35 37.45 687.3 57.95 687.25 65 689.35 70.1 690.95 73.95 696.1 74.15 709.85 74.7 723.6 74.95 724.05 95.25 723.95 116.2 723.85 138.55 723.65 160.95 723.6 164.45 724.05 167.5 724.3 169.1 724.7 170.6 725.35 173.1 726.45 175.15 727.4 177.05 729.45 177.6 736.2 179.5 745.1 179.35 763.45 179 781.9 178.8 782.85 178.85 783.8 178.95 787.95 179.3 791.05 178.65 795.45 178.3 797.5 175.45 800.5 171.35 800.5 163.95 800.55 142 800.35 119.45 800.15 96.9 800.6 74.95 810.05 74.5 820.1 74.8 826.3 75 831.25 73.8 838 72.2 838.2 63.45 838.7 41.95 838.4 19.2
M 824.35 60.7
Q 824.35 60.85 824.35 60.95 801.95 60.95 779.6 60.95 757.2 60.95 734.85 60.95 718 60.95 701.1 60.95 701.1 38.55 701.1 16.2 701.1 16.1 701.1 15.95 723.5 15.95 745.85 15.95 768.25 15.95 790.6 15.95 807.5 15.95 824.35 15.95 824.35 38.35 824.35 60.7
M 782.6 107.95
Q 784.6 107.95 786.6 107.95 786.6 130.35 786.6 152.7 786.6 158.95 786.6 165.2 764.2 165.2 741.85 165.2 739.85 165.2 737.85 165.2 737.85 142.8 737.85 120.45 737.85 114.2 737.85 107.95 760.25 107.95 782.6 107.95
M 922.9 77.4
Q 917.8 74.1 911.05 72.85 897.45 70.4 887.65 75.55 873.05 83.3 870.35 102.95 870.25 111.2 872.4 117.15 878.4 133.5 896.15 137.95 903.75 139.8 911.3 137.9 928.95 133.45 935.05 117.2 936.6 113.05 936.6 107.7 936.7 86.35 922.9 77.4
M 904.85 84.85
Q 910.25 84.7 913.75 86.65 921.1 90.7 923.65 99.25 925.85 106.55 922.95 113.3 919.65 121 912.05 124.6 905.75 127.6 897.95 125.45 883.6 121.45 882.6 103.95 884.9 85.4 904.85 84.85
M 1004.6 197.95
Q 1004.75 188.95 1000.25 185.1 998.65 183.75 996.35 183.65 981.05 182.75 965.1 182.85 942.75 182.95 920.35 182.95 898 182.95 875.6 182.7 866.9 182.6 859.4 183.7 857.05 184 855.7 185.55 851.8 190 851.85 198.45 851.85 200.7 851.85 202.95 851.85 225.3 851.85 247.7 851.85 270.05 851.85 292.45 851.85 314.8 851.65 337.2 851.6 344.25 852.1 350.75 852.05 351.2 852.05 351.7 852 355.5 852.85 358.4 852.85 358.65 852.9 358.9 853.8 366.1 861.6 366.4 882.05 367.15 903.1 367.3 910.5 367.35 916.05 365.8 920.35 364.6 921 359.9 922.95 346.15 922.6 330.2 922.15 307.65 922.6 285.7 933.55 285.25 945.1 285.35 967.45 285.45 989.85 285.9 998.8 286.05 1002.1 281.05 1002.75 280.1 1002.85 279.15 1003.05 277.85 1003.2 276.6 1004.4 272 1004.3 265.95 1004.3 265.45 1004.3 264.95 1004.8 256.85 1004.65 248.2 1004.35 225.85 1004.5 203.45 1004.55 200.4 1004.6 197.95
M 990.6 271.45
Q 990.6 271.6 990.6 271.7 968.2 271.7 945.85 271.7 934.45 271.7 923.1 271.7 923.1 256.1 923.1 240.45 923.1 240.35 923.1 240.2 945.5 240.2 967.85 240.2 979.2 240.2 990.6 240.2 990.6 255.85 990.6 271.45
M 908.35 196.7
Q 908.5 196.7 908.6 196.7 908.6 219.1 908.6 241.45 908.6 263.85 908.6 286.2 908.6 308.6 908.6 330.95 908.6 342.05 908.6 353.2 887.25 353.2 865.85 353.2 865.75 353.2 865.6 353.2 865.6 330.8 865.6 308.45 865.6 286.05 865.6 263.7 865.6 241.3 865.6 218.95 865.6 207.85 865.6 196.7 887 196.7 908.35 196.7
M 923.1 196.95
Q 923.1 196.85 923.1 196.7 945.5 196.7 967.85 196.7 972.7 196.7 977.6 196.7 963.15 204.6 948.45 212.35 935.85 218.95 923.35 225.7 922.9 211.65 923.1 196.95
M 1005.1 65.15
Q 1003.9 65.3 1003.1 66 991.65 75.5 981.1 85.95 978.3 88.75 975.1 91.1 969.4 95.25 968.35 103.95 968.5 104.1 968.45 104.2 968.4 108.65 970.45 110.85 981.3 122.35 992.9 133.15 995.8 135.9 998.35 138.9 1001.6 142.7 1008.1 142.95 1010.8 143 1012.4 141.7 1013.25 141.05 1014.05 140.4 1016.25 139.15 1018 137.35 1018.9 136.45 1019.8 135.55 1025.85 130.25 1031.55 124.65 1037.2 119.05 1043.15 113.8 1047.8 109.75 1046.7 101.2 1046.4 98.75 1045.05 97.25 1044.4 96.5 1043.75 95.8 1042.15 93.3 1039.95 91.35 1038.55 90.1 1037.15 88.85 1030.15 81.6 1022.75 74.75 1019.85 72.1 1017.3 69 1013.35 64.25 1005.1 65.15
M 1003.7 81.8
Q 1005.6 79.9 1007.6 78.2 1019.2 88.95 1030.55 100 1032.5 101.95 1034.6 103.7 1023.45 114.9 1011.95 125.8 1009.9 127.75 1007.85 129.7 996.35 118.8 984.95 107.85 982.85 105.85 980.85 103.7 992.4 92.85 1003.7 81.8
M 1167.45 192
Q 1167.4 191.6 1167.35 191.25 1166.75 186.45 1163.15 184.55 1162.05 183.95 1161.05 183.85 1145.95 182.6 1129.6 182.75 1107.25 182.95 1084.85 182.95 1062.5 182.95 1040.1 182.7 1035.3 182.65 1030.9 182.9 1027.65 183.05 1024.65 183.4 1024.25 183.4 1023.85 183.45 1021.3 183.75 1019.85 185.2 1015.65 189.4 1015.85 197.95 1015.85 207.8 1015.85 217.7 1015.85 240.05 1015.85 262.45 1015.85 284.8 1015.85 307.2 1015.85 329.55 1016 351.95 1016.05 357.4 1017.5 361.65 1018.95 365.75 1023.85 366.2 1024.1 366.25 1024.4 366.25 1026.95 366.95 1030.35 366.85 1031.3 366.85 1032.2 366.8 1040.15 367.25 1048.6 367.1 1059.85 366.95 1071.1 367.35 1080.25 367.7 1083.9 363 1084.85 361.8 1085 360.15 1086.5 346 1086.25 330.2 1085.9 307.65 1086.35 285.7 1095.3 285.25 1104.85 285.3 1127.2 285.45 1149.6 285.8 1157.1 285.95 1162.35 284.2 1166.6 282.8 1167.1 277.9 1168.55 263.15 1168.35 246.7 1168.25 235.9 1168.1 225.05 1168.05 215.85 1168.1 206.65 1168.05 205.45 1168.1 204.3 1168.1 201.5 1168.15 198.7 1168.2 194.95 1167.45 192
M 1087.1 196.95
Q 1087.1 196.85 1087.1 196.7 1109.5 196.7 1131.85 196.7 1136.6 196.7 1141.35 196.7 1127 204.75 1112.25 212.45 1099.75 218.95 1087.35 225.7 1086.9 211.65 1087.1 196.95
M 1072.1 196.7
Q 1072.25 196.7 1072.35 196.7 1072.35 219.1 1072.35 241.45 1072.35 263.85 1072.35 286.2 1072.35 308.6 1072.35 330.95 1072.35 341.95 1072.35 352.95
L 1072.35 353.1
Q 1051 353.2 1029.6 353.2 1029.6 342.05 1029.6 330.95 1029.6 308.6 1029.6 286.2 1029.6 263.85 1029.6 241.45 1029.6 219.1 1029.6 196.7 1050.85 196.7 1072.1 196.7
M 1087.1 271.7
Q 1087.1 271.6 1087.1 271.45 1087.1 255.85 1087.1 240.2 1109.5 240.2 1131.85 240.2 1143.1 240.2 1154.35 240.2 1154.35 255.7 1154.35 271.2 1154.35 271.35 1154.35 271.45 1143.4 271.9 1131.85 271.8 1109.5 271.7 1087.1 271.7
M 1142.85 93.3
Q 1139.9 85.15 1134.1 79.65 1125.35 71.35 1108.85 72.05 1100.95 72.4 1095.65 75.3 1080.95 83.2 1078.35 102.95 1078.25 106.3 1078.7 109.2 1081.7 128.45 1096.75 135.9 1102.7 138.85 1111.6 138.55 1111.85 138.55 1112.1 138.55 1116.7 138.35 1120.65 137.5 1131.15 135.15 1137 128.05 1142.1 121.95 1143.95 112.85 1146.1 102.25 1142.85 93.3
M 1110.4 84.85
Q 1116.2 84.25 1120.15 85.85 1132.25 90.95 1132.35 106.45 1132.35 111.85 1130.5 115.55 1124.75 126.95 1108.1 125.85 1106.1 125.7 1104.15 125 1091.5 120.3 1090.6 103.7 1093.1 86.7 1110.4 84.85 Z"/>

<path fill="#F0BF4F" stroke="none" d="
M 108.05 230
Q 96.85 218.85 85.6 207.7 81.95 211.05 78.45 214.55 67.35 225.8 56.15 237 45 248.2 33.8 259.4 22.6 270.55 11.35 281.7 15 285.45 18.65 289.15 29.85 300.3 41.05 311.5 52.2 322.7 63.4 333.9 74.6 345.05 85.85 356.2 89.2 352.55 92.7 349.05 103.95 337.95 115.15 326.75 126.35 315.6 137.55 304.4 148.7 293.2 159.85 281.95 156.35 278.3 152.8 274.75 141.6 263.6 130.4 252.4 119.25 241.2 108.05 230
M 355.1 86.45
Q 351.75 82.8 348.25 79.3 337 68.2 325.8 57 314.6 45.85 303.5 34.55 292.4 23.25 280.85 12.45 277.3 15.65 273.95 19.05 262.85 30.3 251.65 41.5 240.5 52.7 229.3 63.9 218.1 75.05 206.85 86.2 210.2 90.1 213.85 93.7 225.1 104.8 236.3 116 247.45 127.2 258.65 138.4 269.85 149.55 281.1 160.7 284.45 157.05 287.95 153.55 299.2 142.45 310.4 131.25 321.6 120.1 332.8 108.9 343.95 97.7 355.1 86.45
M 725.1 197.95
Q 716 197.95 706.85 197.55 702.2 197.3 700.1 199.2 700.6 207.95 701.05 216.95 702.05 238.15 703.6 258.95 705.1 279.8 707.75 299.25 709.8 314.3 715.95 325 724.05 339.15 738.95 346.7 746.35 350.45 756.35 351.55 772.25 353.3 784.35 347.75 799.75 340.7 808.65 327.25 810.85 323.85 812.25 319.85 818.1 303.05 820 282.45 821.9 262.15 823.3 240.95 824.75 219.85 825.35 198.95
L 825.35 198.85
Q 811.65 198.5 798.6 198.95 795.3 204.9 792.25 211 784.7 225.95 777.05 240.55 774.15 246.1 771.65 251.85 769.1 257.8 764.35 261.45 761.05 261.45 759.9 259.5 758.6 257.35 757.45 255.25 749.35 240.85 741.3 226.6 733.2 212.2 725.1 197.95 Z"/>

<path fill="#FF8080" stroke="none" d="
M 108.25 34.55
Q 97.15 23.25 85.6 12.45 81.95 15.8 78.45 19.3 67.35 30.55 56.15 41.75 45 52.95 33.8 64.15 22.6 75.3 11.35 86.45 14.85 90.05 18.4 93.65 29.6 104.8 40.8 116 51.95 127.2 63.15 138.4 74.35 149.55 85.6 160.7 89.2 157.2 92.8 153.65 103.95 142.45 115.15 131.25 126.35 120.1 137.55 108.9 148.7 97.7 159.85 86.45 156.5 82.8 153 79.3 141.75 68.2 130.55 57 119.35 45.85 108.25 34.55
M 619.6 292.95
Q 617.9 292.5 615.6 292.5 593.05 292.5 571.1 292.95 571.1 300.05 571.1 307.2 571.1 329.55 571.1 351.95 573.1 351.95 575.1 351.95 597.45 351.95 619.85 351.95 619.85 344.7 619.9 337.45 620.05 314.9 619.6 292.95
M 657.6 244.2
Q 657.6 243.3 657.6 242.45 657.6 220.1 657.6 197.7 640.85 197.7 624.1 197.7 601.75 197.7 579.35 197.7 557 197.7 534.6 197.7 534.6 198.55 534.6 199.45 534.6 221.8 534.6 244.2 551.35 244.2 568.1 244.2 590.45 244.2 612.85 244.2 635.2 244.2 657.6 244.2
M 667.75 97.95
Q 669.35 82.8 666 70 661.4 52.3 651.1 40.25 640.8 28.1 625.55 21 614.1 15.7 597.1 16.35 575.95 17.15 563.1 26.6 550.15 36.1 541.55 49.9 532.95 63.7 531.1 84.2 530.75 96.3 532.9 106.15 536.95 124.25 546.85 136.7 551.85 142.95 557.8 148.3 569.6 158.8 588.6 162.3 598.75 164.15 609.35 162.55 623.95 160.3 634.05 153.7 647.6 144.85 656.65 131.4 665.65 118.1 667.75 97.95
M 584.35 58.25
Q 592.9 53.45 605.55 55.45 612.65 56.55 617.55 59.9 629.15 67.9 631.8 84.7 633.05 92.65 630.9 99.45 625.65 116.6 609.25 122.5 602.5 124.9 594.65 123.45 580.65 120.95 573.45 111.3 568.2 104.25 567.05 93.4 566.6 89.35 566.6 85.2 570.05 66.3 584.35 58.25
M 923.1 196.7
Q 923.1 196.85 923.1 196.95 922.9 211.65 923.35 225.7 935.85 218.95 948.45 212.35 963.15 204.6 977.6 196.7 972.7 196.7 967.85 196.7 945.5 196.7 923.1 196.7
M 908.6 196.7
Q 908.5 196.7 908.35 196.7 887 196.7 865.6 196.7 865.6 207.85 865.6 218.95 865.6 241.3 865.6 263.7 865.6 286.05 865.6 308.45 865.6 330.8 865.6 353.2 865.75 353.2 865.85 353.2 887.25 353.2 908.6 353.2 908.6 342.05 908.6 330.95 908.6 308.6 908.6 286.2 908.6 263.85 908.6 241.45 908.6 219.1 908.6 196.7
M 990.6 271.7
Q 990.6 271.6 990.6 271.45 990.6 255.85 990.6 240.2 979.2 240.2 967.85 240.2 945.5 240.2 923.1 240.2 923.1 240.35 923.1 240.45 923.1 256.1 923.1 271.7 934.45 271.7 945.85 271.7 968.2 271.7 990.6 271.7
M 1120.15 85.85
Q 1116.2 84.25 1110.4 84.85 1093.1 86.7 1090.6 103.7 1091.5 120.3 1104.15 125 1106.1 125.7 1108.1 125.85 1124.75 126.95 1130.5 115.55 1132.35 111.85 1132.35 106.45 1132.25 90.95 1120.15 85.85 Z"/>

<path fill="#00CCFF" stroke="none" d="
M 190.5 150.3
Q 181.45 148.2 172.85 150.15 167.1 151.45 162.85 154.05 148.85 162.6 146.6 182.7 146.65 185.4 147.05 187.9 149.45 203.95 160 212.1 166.35 216.95 175.85 218.6 185.45 220.25 193.1 217.45 209.45 211.4 215.2 194.9 217.5 188.35 216.35 180 214.45 165.35 205.4 157.6 199.4 152.4 190.5 150.3
M 413.35 261.2
Q 413.35 251.6 413.35 241.95 413.35 219.6 413.35 197.2 402.55 198.15 395 202.3 380.5 210.2 376.6 228.7 376.2 235.2 377.75 239.9 379.25 244.45 381.85 247.9 391.55 260.6 413.35 261.2
M 435.35 253.2
Q 435.35 260.2 435.35 267.2 435.35 289.55 435.35 311.95 435.35 334.3 435.35 356.7 453.05 356.65 467.15 353.15 480.7 349.8 487.9 340.3 495.1 330.7 496.05 314.7 497.1 297.55 494 283.5 489.95 265.25 474 258.95 457.6 252.45 435.35 253.2
M 434.5 232.2
L 434.6 232.2
Q 457 232.2 479.35 232.2 487.75 232.2 496.1 232.2 496 223.45 492.95 216.4 486.2 200.75 466.1 198.35 450.9 196.55 434.35 197.2 434.35 214.7 434.5 232.2
M 489.85 102.15
Q 491.65 95 490.65 86.75 488.2 66.95 477.7 55.1 467.2 43.2 453.3 34.75 439.4 26.3 422.1 21.2 404.8 16.15 382.85 15.7 382.85 15.85 382.85 15.95 382.85 32.6 382.85 49.2 385.05 50.5 387.15 51.9 400.7 60.75 414.4 69.4 428.1 78.1 441.1 87.45 441.1 87.6 441.15 87.7 441.6 89.3 441.1 90.95 438.45 93.8 435.1 96.05 421.9 105.15 408.75 114.4 395.6 123.6 382.35 132.7 382.35 132.85 382.35 132.95 382.35 148.6 382.35 164.2 399.5 163.6 414.1 160.5 432.6 156.55 447.4 149.05 462.25 141.5 473.85 130.7 485.4 119.9 489.85 102.15
M 786.6 107.95
Q 784.6 107.95 782.6 107.95 760.25 107.95 737.85 107.95 737.85 114.2 737.85 120.45 737.85 142.8 737.85 165.2 739.85 165.2 741.85 165.2 764.2 165.2 786.6 165.2 786.6 158.95 786.6 152.7 786.6 130.35 786.6 107.95
M 824.35 60.95
Q 824.35 60.85 824.35 60.7 824.35 38.35 824.35 15.95 807.5 15.95 790.6 15.95 768.25 15.95 745.85 15.95 723.5 15.95 701.1 15.95 701.1 16.1 701.1 16.2 701.1 38.55 701.1 60.95 718 60.95 734.85 60.95 757.2 60.95 779.6 60.95 801.95 60.95 824.35 60.95
M 1007.6 78.2
Q 1005.6 79.9 1003.7 81.8 992.4 92.85 980.85 103.7 982.85 105.85 984.95 107.85 996.35 118.8 1007.85 129.7 1009.9 127.75 1011.95 125.8 1023.45 114.9 1034.6 103.7 1032.5 101.95 1030.55 100 1019.2 88.95 1007.6 78.2
M 1087.1 271.45
Q 1087.1 271.6 1087.1 271.7 1109.5 271.7 1131.85 271.8 1143.4 271.9 1154.35 271.45 1154.35 271.35 1154.35 271.2 1154.35 255.7 1154.35 240.2 1143.1 240.2 1131.85 240.2 1109.5 240.2 1087.1 240.2 1087.1 255.85 1087.1 271.45
M 1072.35 196.7
Q 1072.25 196.7 1072.1 196.7 1050.85 196.7 1029.6 196.7 1029.6 219.1 1029.6 241.45 1029.6 263.85 1029.6 286.2 1029.6 308.6 1029.6 330.95 1029.6 342.05 1029.6 353.2 1051 353.2 1072.35 353.1
L 1072.35 352.95
Q 1072.35 341.95 1072.35 330.95 1072.35 308.6 1072.35 286.2 1072.35 263.85 1072.35 241.45 1072.35 219.1 1072.35 196.7
M 1087.1 196.7
Q 1087.1 196.85 1087.1 196.95 1086.9 211.65 1087.35 225.7 1099.75 218.95 1112.25 212.45 1127 204.75 1141.35 196.7 1136.6 196.7 1131.85 196.7 1109.5 196.7 1087.1 196.7 Z"/>

<path fill="#95FF95" stroke="none" d="
M 355.1 281.95
Q 351.6 278.3 348.05 274.75 336.85 263.6 325.65 252.4 314.5 241.2 303.3 230 292.1 218.85 280.85 207.7 277.5 211.2 274.05 214.65 262.85 225.8 251.65 237 240.5 248.2 229.3 259.4 218.1 270.55 206.85 281.7 217.65 293.25 228.95 304.35 240.25 315.45 251.4 326.65 262.6 337.85 273.8 349 277.35 352.55 280.85 356.2 289 356.2 297.1 356.2 297.25 356.2 297.35 356.2 305.35 356.2 313.35 356.35
L 313.35 356.45
Q 328.1 356.45 342.85 356.45 343 356.45 343.1 356.45 349.75 356.45 356.35 356.6
L 356.35 356.7
Q 374.85 356.7 393.35 356.7 393.5 356.7 393.6 356.7 397.35 356.7 401.1 356.8 401.1 356.85 401.1 356.95 401.25 356.95 401.35 356.95 408 356.95 414.6 356.95 414.6 341.8 414.6 326.7 414.6 304.35 414.6 281.95 407.25 281.95 399.85 281.95 377.5 281.95 355.1 281.95
M 913.75 86.65
Q 910.25 84.7 904.85 84.85 884.9 85.4 882.6 103.95 883.6 121.45 897.95 125.45 905.75 127.6 912.05 124.6 919.65 121 922.95 113.3 925.85 106.55 923.65 99.25 921.1 90.7 913.75 86.65 Z"/>
</g>
</defs>

<g transform="matrix( 1, 0, 0, 1, 0,0) ">
<g transform="matrix( 1, 0, 0, 1, 10,10) ">
<g transform="matrix( 1, 0, 0, 1, 0,0) ">
<use xlink:href="#drop_shadow_0_Layer0_0_FILL"/>
</g>
</g>

<g transform="matrix( 1, 0, 0, 1, 0,0) ">
<g transform="matrix( 1, 0, 0, 1, 0,0) ">
<use xlink:href="#logo_0_Layer0_0_FILL"/>
</g>
</g>
</g>
</svg>
